<?xml version="1.0" standalone="no"?>
<!DOCTYPE svg PUBLIC "-//W3C//DTD SVG 20010904//EN"
 "http://www.w3.org/TR/2001/REC-SVG-20010904/DTD/svg10.dtd">
<svg version="1.0" xmlns="http://www.w3.org/2000/svg"
 width="366.000000pt" height="366.000000pt" viewBox="0 0 366.000000 366.000000"
 preserveAspectRatio="xMidYMid meet">
<metadata>
Created by potrace 1.14, written by Peter Selinger 2001-2017
</metadata>
<g transform="translate(0.000000,366.000000) scale(0.100000,-0.100000)"
fill="#000000" stroke="none">
<path d="M1737 3412 c-3 -15 -3 -46 0 -67 3 -28 -2 -57 -17 -95 -12 -30 -35
-93 -52 -140 -16 -47 -37 -102 -46 -122 l-16 -38 -55 6 c-31 3 -87 8 -126 11
-38 3 -76 11 -84 17 -12 9 -13 8 -6 -4 8 -13 7 -13 -10 0 -10 8 -20 14 -22 13
-1 -2 -5 -2 -8 -2 -3 1 -13 2 -22 3 -10 1 -24 5 -30 9 -8 5 -13 4 -13 -3 0 -7
-6 -8 -19 -1 -10 6 -21 8 -24 4 -4 -3 -13 0 -22 7 -12 10 -15 10 -15 -1 0 -11
-2 -11 -10 1 -7 11 -10 11 -10 2 0 -9 -5 -10 -16 -4 -9 5 -25 7 -35 5 -12 -3
-19 0 -19 8 -1 9 -4 8 -11 -4 -6 -9 -15 -14 -22 -10 -14 8 -57 11 -57 3 0 -4
-14 -4 -31 -2 -24 4 -30 2 -24 -8 6 -10 4 -11 -6 -4 -19 11 -39 14 -39 5 0 -4
-7 -8 -15 -8 -8 0 -15 5 -15 11 0 6 -4 5 -9 -3 -5 -8 -23 -14 -40 -13 -17 0
-31 -3 -31 -8 0 -5 -7 -7 -15 -4 -8 4 -15 2 -15 -4 0 -6 -8 -9 -17 -8 -10 2
-21 -1 -24 -6 -3 -5 -12 -10 -20 -12 -8 -1 -25 -8 -39 -16 -14 -8 -28 -13 -32
-12 -5 1 -8 -3 -8 -8 0 -6 -10 -10 -22 -10 -19 0 -20 -2 -8 -10 13 -8 13 -10
-1 -10 -9 0 -26 -9 -39 -20 -13 -11 -27 -20 -32 -20 -5 0 -6 -4 -3 -10 3 -5 1
-10 -5 -10 -11 0 -81 -65 -80 -75 1 -12 -28 -34 -35 -27 -5 4 -5 -1 -1 -12 5
-14 2 -17 -9 -12 -9 3 -14 2 -10 -3 3 -5 -2 -17 -11 -25 -8 -9 -12 -16 -7 -16
4 0 -3 -10 -17 -21 -14 -11 -18 -17 -10 -13 8 4 4 -5 -10 -21 -14 -16 -18 -25
-10 -21 8 4 6 0 -5 -9 -11 -9 -20 -19 -19 -23 2 -17 -9 -42 -20 -42 -6 0 -4
-5 4 -10 13 -8 12 -10 -3 -10 -10 0 -15 -5 -12 -10 3 -6 1 -10 -6 -10 -8 0 -7
-5 2 -17 8 -9 9 -14 4 -11 -6 4 -18 -7 -28 -23 -9 -17 -12 -27 -7 -24 6 3 10
2 10 -3 0 -6 -7 -13 -16 -16 -8 -3 -12 -10 -9 -16 3 -5 1 -10 -4 -10 -13 0
-10 -22 4 -32 6 -4 2 -8 -9 -8 -12 0 -16 -5 -12 -15 3 -8 1 -15 -4 -15 -6 0
-6 -10 1 -26 8 -22 7 -25 -4 -16 -11 9 -13 8 -12 -6 0 -9 4 -23 9 -30 4 -7 4
-12 -1 -11 -20 3 -23 -2 -12 -22 9 -17 8 -20 -2 -14 -9 6 -11 2 -7 -13 4 -12
2 -22 -2 -22 -5 0 -7 -11 -5 -25 1 -14 -1 -25 -4 -25 -6 0 -8 -9 -12 -65 -1
-14 -6 -25 -11 -25 -6 0 -6 -6 1 -14 9 -11 8 -15 -5 -20 -13 -5 -15 -9 -6 -18
14 -14 16 -32 4 -24 -11 6 -9 -25 3 -43 5 -10 4 -12 -3 -7 -14 8 -12 -20 2
-43 7 -10 6 -12 -4 -6 -10 6 -11 2 -6 -19 4 -17 3 -25 -3 -22 -10 7 -9 -19 1
-30 4 -3 4 -12 1 -20 -3 -8 1 -22 8 -31 8 -10 9 -14 2 -10 -8 5 -11 0 -10 -13
1 -11 5 -20 10 -20 5 0 4 -7 -3 -15 -7 -8 -8 -15 -3 -15 12 0 11 -30 -2 -49
-5 -10 -4 -12 3 -7 8 5 12 -5 12 -34 0 -23 4 -39 9 -35 11 6 7 -28 -5 -47 -4
-6 -3 -8 3 -5 6 4 13 -4 15 -18 3 -14 1 -25 -5 -25 -6 0 -2 -7 9 -15 13 -10
15 -14 5 -15 -11 0 -10 -5 4 -20 11 -12 13 -20 6 -20 -7 0 -9 -5 -6 -10 4 -6
12 -7 18 -4 9 5 9 4 0 -6 -8 -9 -9 -19 -2 -32 5 -10 6 -18 2 -18 -4 0 -1 -5 7
-10 13 -9 13 -10 0 -10 -13 0 -13 -1 0 -10 17 -10 20 -41 5 -52 -6 -4 -2 -8 8
-8 10 0 15 -5 12 -10 -4 -6 -1 -18 7 -27 11 -14 11 -16 -2 -8 -12 7 -13 6 -3
-7 7 -8 10 -18 6 -21 -3 -4 0 -7 7 -7 7 0 10 -3 7 -7 -4 -3 -1 -13 6 -21 10
-13 9 -14 -3 -7 -11 6 -10 3 3 -12 9 -11 15 -22 12 -25 -3 -3 6 -31 21 -64
155 -357 323 -553 574 -672 190 -89 336 -97 514 -25 50 19 110 37 135 39 52 3
178 64 422 202 85 49 180 102 210 117 30 16 61 34 69 41 8 6 47 28 85 49 61
33 160 88 205 115 8 5 35 20 60 33 61 32 111 61 157 90 21 13 65 38 98 57 33
18 104 57 157 86 381 209 540 362 616 594 48 147 52 295 11 455 -23 88 -103
260 -146 314 -49 61 -166 178 -217 216 -90 67 -228 124 -338 140 -97 14 -300
40 -390 50 -32 4 -58 9 -58 13 -1 16 86 191 94 192 20 1 75 51 70 64 -3 8 -60
42 -127 75 -110 55 -154 75 -267 124 -55 23 -272 98 -300 103 -14 3 -42 11
-63 19 -53 21 -64 19 -70 -13z"/>
</g>
</svg>
